<svg width="300" height="320" viewBox="0 0 300 320" fill="none" xmlns="http://www.w3.org/2000/svg">
<path d="M299.5 300C299.5 310.77 290.77 319.5 280 319.5H20C9.23044 319.5 0.5 310.77 0.5 300V77.88C0.5 69.722 7.11334 63.1087 15.2713 63.1087H26.9032C31.1489 63.1087 35.3365 62.1232 39.1366 60.2297C45.224 57.1965 49.9675 52.0099 52.4466 45.6765L54.8004 39.6629C56.8096 34.53 57.8407 29.0666 57.8407 23.5545V16.3612C57.8407 7.60132 64.942 0.5 73.702 0.5H280C290.77 0.5 299.5 9.23044 299.5 20V300Z" fill="white" stroke="#C8C8C8"/>
</svg>
